<svg width="388" height="307" viewBox="0 0 388 307" fill="none" xmlns="http://www.w3.org/2000/svg">
<path d="M252.432 126.241C251.581 126.369 250.714 126.301 249.891 126.041C249.068 125.781 248.309 125.336 247.668 124.737C247.028 124.138 246.52 123.4 246.182 122.574C245.844 121.748 245.683 120.855 245.711 119.957L226.2 112.124L235.035 105.522L252.208 113.972C253.649 114.122 254.987 114.818 255.97 115.93C256.952 117.041 257.51 118.49 257.537 120.003C257.565 121.515 257.06 122.986 256.119 124.135C255.178 125.285 253.866 126.034 252.432 126.241L252.432 126.241Z" fill="#FFB7B7"/>
<path d="M241.283 120.621L244.329 109.395L244.18 109.288L215.644 89.0367L190.976 63.179L176.607 69.1767L177.55 73.9281L177.612 73.9864L210.409 104.676L210.439 104.691L241.283 120.621Z" fill="white"/>
<path d="M212.05 146.264L167.887 139.796L171.774 111.486H204.287L212.05 146.264Z" fill="#FFB6B6"/>
<path d="M137.01 284.891L146.07 287.09L158.5 251.632L145.13 248.386L137.01 284.891Z" fill="#FFB6B6"/>
<path d="M128.581 300.128L135.078 301.705L137.663 295.579L139.207 302.708L156.438 306.891C157.264 307.092 158.13 307.011 158.909 306.661C159.688 306.312 160.339 305.711 160.768 304.947C161.197 304.183 161.381 303.295 161.293 302.414C161.205 301.533 160.85 300.704 160.28 300.049L148.728 286.781L150.169 280.302L135.495 277.691L128.581 300.128Z" fill="#2F2E41"/>
<path d="M192.908 290.165H202.209L206.635 252.687H192.908V290.165Z" fill="#FFB6B6"/>
<path d="M187.999 307H194.669L195.859 300.421L198.909 307H216.598C217.446 307 218.272 306.717 218.955 306.192C219.638 305.667 220.143 304.928 220.395 304.082C220.647 303.236 220.634 302.328 220.358 301.491C220.081 300.653 219.556 299.93 218.858 299.427L204.731 289.234V282.584L189.873 283.51L187.999 307Z" fill="#2F2E41"/>
<path d="M167.329 134.993L210.518 131.404C223.263 162.506 215.159 212.158 205.365 268.051L191.473 269.927L190.396 180.113L155.572 263.667L141.093 262.894L167.329 134.993Z" fill="#2F2E41"/>
<path d="M192.469 53.0913V37.8264C192.47 35.1394 191.964 32.4785 190.981 29.9956C189.998 27.5128 188.556 25.2566 186.737 23.3562C184.919 21.4557 182.76 19.9481 180.384 18.9195C178.008 17.8909 175.461 17.3615 172.889 17.3615C170.317 17.3615 167.77 17.8909 165.394 18.9195C163.018 19.9481 160.859 21.4557 159.041 23.3562C157.223 25.2566 155.781 27.5128 154.798 29.9956C153.814 32.4785 153.309 35.1394 153.31 37.8264C149.859 45.3389 152.018 48.9106 153.31 53.0913C153.311 53.8194 153.589 54.5172 154.081 55.032C154.574 55.5468 155.242 55.8365 155.939 55.8377H189.838C190.535 55.8369 191.204 55.5473 191.697 55.0325C192.19 54.5176 192.467 53.8196 192.469 53.0913Z" fill="#2F2E41"/>
<path d="M177.721 55.6074C185.649 55.6074 192.076 48.8931 192.076 40.6106C192.076 32.3281 185.649 25.6138 177.721 25.6138C169.793 25.6138 163.366 32.3281 163.366 40.6106C163.366 48.8931 169.793 55.6074 177.721 55.6074Z" fill="#FFB7B7"/>
<path d="M197.1 39.0472C197.096 34.7574 195.462 30.6446 192.559 27.6113C189.655 24.5779 185.719 22.8717 181.612 22.8668H178.69C174.584 22.8717 170.647 24.5779 167.743 27.6113C164.84 30.6447 163.207 34.7574 163.202 39.0472V39.3526C165.391 40.9158 167.469 41.1444 169.378 39.3526L171.484 33.1908L171.906 39.3526H175.098L176.162 36.2439L176.375 39.3526C180.686 43.1888 188.839 41.3504 197.1 39.3526L197.1 39.0472Z" fill="#2F2E41"/>
<path d="M169.351 119.761L205.9 118.308L207.943 93.3282C209.518 88.7561 209.544 84.8274 208.018 81.6599C206.706 79.0562 204.502 77.0658 201.846 76.0866L193.849 65.9954C192.82 64.6984 191.528 63.6564 190.067 62.9446C188.605 62.2328 187.011 61.8691 185.399 61.8797L164.618 62.0281C164.117 61.7136 161.079 60.1004 155.087 62.8128C148.588 65.7554 150.097 75.9787 150.113 76.0813L150.128 76.1774L150.2 76.2428L164.021 88.4056L169.351 119.761Z" fill="white"/>
<path d="M266.313 156.017C266.285 170.569 261.049 184.584 251.632 195.307C242.215 206.03 229.299 212.685 215.423 213.963C201.548 215.241 187.717 211.051 176.649 202.216C165.581 193.38 158.076 180.539 155.612 166.217C153.147 151.895 155.899 137.127 163.328 124.817C170.757 112.508 182.325 103.546 195.758 99.6954C209.191 95.8444 223.516 97.3823 235.919 104.007C248.321 110.631 257.903 121.862 262.781 135.493C262.902 135.835 263.021 136.178 263.136 136.523V136.526C263.651 138.046 264.105 139.593 264.497 141.169C265.706 146.017 266.317 151.007 266.313 156.017Z" fill="#3F3D56"/>
<path d="M204.001 116.428C201.477 115.002 198.674 114.197 195.807 114.074C192.94 113.952 190.084 114.515 187.457 115.721C185.143 116.772 182.708 118.659 181.936 122.066C185.057 120.142 189.097 123.182 189.9 128.059L189.713 128.113C189.289 131.491 190.235 135.169 192.069 137.264C192.205 136.319 192.541 135.417 193.053 134.625C193.564 133.832 194.238 133.169 195.026 132.682C196.373 131.757 197.863 131.085 198.891 129.495C200.11 127.61 200.419 124.856 200.903 122.342C201.387 119.829 202.306 117.128 204.001 116.428Z" fill="#8EE3C8"/>
<path d="M186.531 145.175C185.666 146.531 184.512 147.382 183.476 148.442C182.28 149.578 181.495 151.11 181.254 152.78C181.123 153.961 181.326 155.16 181.298 156.353C181.27 157.546 180.889 158.889 180.112 159.186C178.886 159.649 177.95 157.269 176.689 157.103C175.687 156.973 174.786 158.619 175.076 160.047C175.366 161.475 176.73 162.107 177.513 161.175C178.221 162.417 177.722 164.669 176.658 165.051C176.546 165.833 176.433 166.612 176.324 167.395C173.634 165.429 170.916 163.431 168.629 160.552C166.085 157.378 164.508 153.482 164.098 149.364C163.802 146.055 164.242 142.271 162.788 139.725C161.624 137.687 159.627 137.237 157.829 137.364C157.502 137.387 157.171 137.426 156.843 137.469C157.903 134.143 159.25 130.924 160.866 127.852C161.231 127.688 161.571 127.467 161.873 127.197C163.546 125.713 164.289 122.711 165.646 120.635C165.733 120.501 165.824 120.37 165.917 120.243C167.306 118.349 169.166 117.375 170.963 116.468C174.942 114.45 179.036 112.407 183.236 112.687L182.041 112.807C180.646 116.889 179.25 120.97 177.853 125.052C177.641 125.678 177.426 126.305 177.21 126.933C176.418 129.254 175.6 131.725 175.722 134.323C175.794 135.861 176.305 137.505 177.279 138.033C178.187 138.522 179.179 137.922 180.056 137.328C180.427 137.081 180.795 136.833 181.167 136.582C182.499 135.685 183.975 134.766 185.382 135.366C186.671 135.914 187.623 137.742 187.804 139.715C187.97 141.632 187.522 143.552 186.531 145.175Z" fill="#8EE3C8"/>
<path d="M194.455 173.04C190.564 170.537 186.672 168.033 182.781 165.53L182.847 165.353C180.427 166.315 179.423 170.808 179.823 174.483C180.223 178.157 181.578 181.442 182.263 185.022C183.187 189.922 182.838 194.99 181.254 199.701C186.371 193.703 190.899 187.184 194.771 180.242C195.312 179.367 195.724 178.412 195.994 177.409C196.28 176.341 196.178 175.199 195.708 174.204C195.39 173.713 194.959 173.313 194.455 173.04Z" fill="#8EE3C8"/>
<path d="M179.097 127.5C178.64 128.525 178.57 129.693 178.9 130.769C179.284 131.637 179.98 132.311 180.838 132.645L182.988 133.758C183.703 134.128 184.474 134.503 185.204 134.198C186.083 133.83 186.693 132.39 186.535 131.052C186.367 129.629 185.509 128.65 184.715 127.817C183.603 126.65 182.492 125.484 181.381 124.317L180.754 125.118C180.077 125.809 179.517 126.614 179.097 127.5Z" fill="#8EE3C8"/>
<path d="M254.786 142.714C255.753 142.952 256.721 143.19 257.688 143.427C257.519 146.841 255.9 149.999 253.728 151.144C252.823 151.62 251.815 151.796 251.067 152.686C250.389 153.494 250.046 154.752 249.731 155.955C249.179 158.055 248.626 160.154 248.074 162.253C247.481 164.516 246.72 167.029 245.178 167.844C243.855 168.545 242.342 167.688 241.325 166.25C240.307 164.812 239.687 162.879 239.084 160.995C239.122 163.049 238.207 165.063 236.912 165.777C235.614 166.491 234.035 165.846 233.168 164.252C232.544 163.108 232.285 161.598 231.673 160.438C231.062 159.277 229.779 158.612 229.112 159.701C228.672 160.425 228.728 161.533 228.509 162.452C228.399 163.063 228.11 163.622 227.682 164.053C227.253 164.483 226.707 164.764 226.119 164.855C225.578 164.842 225.046 164.714 224.554 164.479C224.062 164.244 223.621 163.907 223.258 163.489C221.347 161.447 220.103 158.826 219.704 156.001C219.433 154.646 219.467 153.245 219.803 151.907C220.187 150.638 221.114 149.661 222.034 149.902C222.64 148.565 221.445 146.792 220.368 146.948C219.289 147.105 218.443 148.314 217.557 149.243C216.674 150.172 215.438 150.847 214.549 149.924C214.569 150.262 214.459 150.594 214.245 150.847C214.031 151.1 213.729 151.254 213.406 151.275C213.374 151.277 213.342 151.278 213.31 151.277C212.719 151.1 212.169 150.796 211.697 150.384C209.659 149.057 207.072 149.938 205.624 152.448C206.529 148.425 207.855 143.809 210.636 142.864C211.772 142.476 213.01 142.795 214.084 142.123C215.984 140.934 216.368 136.438 214.727 134.583C214.936 136.337 214.895 138.384 214.009 139.584C213.123 140.784 211.263 140.001 211.375 138.228C211.35 138.477 211.25 138.712 211.089 138.898C210.929 139.085 210.715 139.213 210.481 139.265C210.246 139.317 210.001 139.29 209.782 139.188C209.563 139.086 209.38 138.915 209.26 138.697C208.67 137.759 208.72 136.223 209.138 135.102C209.569 134.086 210.187 133.169 210.957 132.403C212.439 130.743 213.943 129.064 215.66 128.021C217.379 126.978 219.364 126.626 221.086 127.663C221.994 128.21 222.793 129.123 223.72 129.606C223.937 129.747 224.18 129.842 224.433 129.885C224.685 129.928 224.944 129.919 225.194 129.858C225.443 129.797 225.679 129.685 225.887 129.529C226.095 129.373 226.272 129.176 226.407 128.948C226.417 128.93 226.428 128.913 226.437 128.895C227.127 127.63 226.803 125.752 227.058 124.171C227.517 121.378 230.191 120.07 231.673 121.915C230.566 121.619 229.42 122.988 229.283 124.647C229.143 126.307 229.945 127.982 231.018 128.484C232.822 129.319 234.588 127.219 235.951 125.276C237.374 123.242 238.799 121.209 240.226 119.177C240.454 118.831 240.71 118.506 240.991 118.206C241.438 117.751 242.034 117.49 242.658 117.477C243.282 117.463 243.887 117.698 244.352 118.134C245.793 119.363 246.47 121.883 247.653 123.617C249.369 126.137 251.937 126.75 254.327 127.239C256.109 127.601 257.892 127.965 259.676 128.331C260.865 130.642 261.902 133.035 262.781 135.493C259.509 137.051 256.735 139.557 254.786 142.714Z" fill="#8EE3C8"/>
<path d="M264.497 141.169C264.131 142.294 263.931 143.471 263.904 144.66C262.375 142.71 262.131 139.056 263.136 136.526C263.651 138.046 264.105 139.593 264.497 141.169Z" fill="#8EE3C8"/>
<path d="M260.546 181.937C259.21 184.773 257.655 187.491 255.897 190.064C254.774 189.562 253.566 190.458 252.515 191.299C251.416 192.179 250.096 193.037 248.97 192.235C247.818 191.413 247.447 189.115 247.812 187.293C248.232 185.612 248.966 184.034 249.971 182.651C250.908 181.19 251.909 179.674 253.21 179.107C254.515 178.54 256.19 179.342 256.571 181.278L257.495 181.246C256.977 180.502 257.248 178.964 257.944 178.693C258.746 178.377 259.442 179.528 259.916 180.545C260.128 181.004 260.344 181.467 260.546 181.937Z" fill="#8EE3C8"/>
<path d="M225.172 168.167C223.187 168.298 221.614 165.745 220.569 163.233C219.524 160.721 218.571 157.848 216.779 156.57C215.756 155.839 214.589 155.739 213.479 155.385C212.849 155.219 212.266 154.898 211.779 154.45C211.291 154.002 210.913 153.438 210.676 152.807L209.416 152.275C207.655 153.195 206.041 154.397 204.635 155.837C203.027 157.621 202.026 159.907 201.786 162.344C201.545 164.978 202.433 167.914 204.093 168.903C205.405 169.685 206.932 169.192 208.26 169.908C209.92 170.802 210.906 173.399 211.279 175.964C211.652 178.528 211.557 181.193 211.824 183.787C212.091 186.38 212.827 189.079 214.349 190.408C216.254 192.071 219.049 190.689 219.904 187.661C220.323 186.176 220.308 184.501 220.622 182.959C221.174 180.244 222.664 178.23 223.846 176.003C225.028 173.776 225.958 170.752 225.172 168.167Z" fill="#8EE3C8"/>
<path d="M205.554 141.491C205.739 141.669 205.912 141.861 206.071 142.065C206.236 142.361 206.32 142.699 206.314 143.042C206.309 143.385 206.214 143.719 206.039 144.01C206.279 143.996 206.512 143.93 206.726 143.816C206.939 143.703 207.128 143.545 207.28 143.351C207.642 142.92 207.961 142.451 208.231 141.951C208.358 141.78 208.449 141.583 208.497 141.372C208.546 141.162 208.55 140.943 208.512 140.73C208.418 140.451 208.196 140.332 208.041 140.121C207.825 139.71 207.678 139.264 207.605 138.801C207.519 138.367 207.319 137.967 207.027 137.646C206.735 137.325 206.364 137.095 205.954 136.982L206.053 137.002C205.884 137.107 205.75 137.265 205.671 137.453C205.592 137.642 205.571 137.851 205.611 138.053C205.671 138.459 205.922 138.797 205.897 139.212C205.861 139.809 205.29 140.089 205.255 140.685C205.249 140.985 205.357 141.274 205.554 141.491Z" fill="#8EE3C8"/>
<path d="M202.153 131.352L202.162 131.351C202.223 131.293 202.279 131.23 202.331 131.162L202.153 131.352Z" fill="#8EE3C8"/>
<path d="M202.748 134.153C202.987 133.934 203.163 133.652 203.258 133.335C203.353 133.019 203.363 132.682 203.287 132.36C203.143 131.682 202.633 131.226 202.162 131.351C202.025 131.495 201.856 131.601 201.669 131.659C201.482 131.716 201.285 131.723 201.095 131.679C200.804 131.601 200.484 131.399 200.232 131.628C200.088 131.799 199.986 132.005 199.938 132.228C199.845 132.528 199.751 132.827 199.658 133.127C199.613 133.234 199.602 133.353 199.625 133.467C199.642 133.513 199.671 133.554 199.708 133.584C199.745 133.615 199.79 133.636 199.836 133.643C200.397 133.816 200.958 133.989 201.518 134.161C201.711 134.254 201.922 134.302 202.134 134.3C202.347 134.299 202.556 134.249 202.748 134.153Z" fill="#8EE3C8"/>
<path d="M245.074 172.815C244.814 172.372 244.555 171.929 244.296 171.485C244.042 170.972 243.694 170.516 243.272 170.141C243.18 170.061 243.075 170.001 242.961 169.964C242.847 169.926 242.728 169.913 242.609 169.924C242.49 169.935 242.375 169.97 242.269 170.028C242.163 170.085 242.069 170.164 241.993 170.259L241.979 170.277L242.011 170.53C242.705 171.307 243.178 172.271 243.376 173.313C243.435 173.766 243.415 174.235 243.467 174.69C243.472 174.901 243.517 175.109 243.6 175.302C243.682 175.494 243.8 175.668 243.947 175.813C244.355 176.098 244.834 175.678 245.125 175.166C245.384 174.745 245.501 174.245 245.455 173.746C245.39 173.412 245.261 173.095 245.074 172.815Z" fill="#8EE3C8"/>
<path d="M249.139 173.392C249.188 172.977 249.156 172.556 249.044 172.154C249.026 171.611 249.163 171.075 249.44 170.614C249.714 170.18 249.923 169.703 250.057 169.202C250.113 168.973 250.103 168.733 250.027 168.51C249.941 168.309 249.733 168.217 249.614 168.377L249.869 168.548C249.525 168.484 249.171 168.502 248.834 168.601C248.642 168.677 248.47 168.801 248.334 168.962C248.197 169.123 248.1 169.316 248.05 169.524C248.008 169.849 247.939 170.17 247.844 170.483C247.692 170.81 247.397 170.918 247.212 171.205C247.086 171.459 247.022 171.742 247.027 172.029C247.031 172.315 247.104 172.596 247.238 172.845C247.471 173.254 247.84 173.557 248.275 173.697C248.586 173.814 248.997 173.82 249.139 173.392Z" fill="#8EE3C8"/>
<path d="M256.379 175.674C256.492 175.98 256.643 176.269 256.828 176.534C257.174 176.899 257.645 176.675 258.066 176.586C258.447 176.523 258.838 176.569 259.197 176.72C259.555 176.87 259.868 177.119 260.102 177.44C259.939 176.59 259.583 175.794 259.065 175.117C258.546 174.441 257.879 173.905 257.121 173.554C256.136 173.197 255.097 173.028 254.055 173.053L253.877 173.101C254.331 174.48 255.755 174.45 256.379 175.674Z" fill="#8EE3C8"/>
<path d="M225.715 178.496L225.718 178.502L225.771 178.398L225.715 178.496Z" fill="#8EE3C8"/>
<path d="M224.617 180.717C224.377 181.172 224.171 181.644 224 182.131C223.775 182.92 223.625 183.731 223.554 184.551C223.498 185.017 223.481 185.613 223.761 185.84C223.841 185.896 223.938 185.919 224.033 185.906C224.129 185.892 224.216 185.843 224.279 185.767C224.435 185.595 224.562 185.397 224.656 185.182C225.205 184.193 225.632 183.135 225.926 182.034C226.232 180.865 226.159 179.623 225.718 178.502C225.351 179.241 224.984 179.979 224.617 180.717Z" fill="#8EE3C8"/>
<path d="M214.021 121.545C214.195 121.723 214.416 121.844 214.655 121.893C214.895 121.942 215.143 121.916 215.368 121.82C215.836 121.606 216.265 121.31 216.636 120.945C216.944 120.707 217.205 120.409 217.405 120.069C217.515 119.865 217.586 119.641 217.613 119.408C217.64 119.176 217.623 118.941 217.562 118.715C217.476 118.499 217.339 118.31 217.164 118.165C216.988 118.02 216.78 117.924 216.559 117.886C215.937 117.694 215.315 117.501 214.692 117.308L215.143 116.884C214.679 116.624 214.167 117.106 213.878 117.703C213.692 118.093 213.563 118.509 213.494 118.938C213.395 119.387 213.391 119.852 213.482 120.302C213.573 120.752 213.757 121.176 214.021 121.545Z" fill="#8EE3C8"/>
<path d="M225.008 117.692C225.183 117.894 225.425 118.019 225.686 118.041C225.946 118.063 226.204 117.981 226.409 117.811C226.585 117.673 226.731 117.498 226.837 117.297C226.944 117.096 227.009 116.874 227.028 116.645C227.072 116.133 226.83 115.565 226.485 115.521L226.564 115.042C225.898 114.916 225.079 114.891 224.722 115.736C224.601 116.06 224.564 116.411 224.615 116.754C224.665 117.097 224.8 117.42 225.008 117.692Z" fill="#8EE3C8"/>
<path d="M159.418 168.933C158.778 168.333 158.272 167.594 157.936 166.767C157.599 165.941 157.44 165.047 157.47 164.15C157.499 163.252 157.717 162.372 158.107 161.572C158.497 160.771 159.05 160.07 159.728 159.517L152.978 138.85L163.494 141.704L168.286 160.891C169.1 162.142 169.447 163.662 169.26 165.162C169.073 166.662 168.366 168.039 167.272 169.031C166.178 170.022 164.774 170.56 163.326 170.542C161.878 170.525 160.486 169.952 159.415 168.934L159.418 168.933Z" fill="#FFB7B7"/>
<path d="M156.403 156.391L166.605 151.641L163.178 115.589L166.37 79.2358L152.748 71.5555L149.862 75.3574V75.4437L148.333 121.414L148.341 121.448L156.403 156.391Z" fill="white"/>
<path d="M312.698 263.824C306.929 261.053 300.707 257.787 294.03 254.028C259.5 234.581 217.039 204.242 174.467 168.603C131.897 132.964 94.3021 96.2799 68.6096 65.3107C56.0941 50.2244 47.0789 37.3045 41.815 26.9096C36.2417 15.9048 35.1177 8.10617 38.4736 3.73096C45.0117 -4.79254 66.304 2.88469 83.0148 10.8261L82.4041 12.2291C59.4559 1.32333 44.2632 -1.35223 39.6249 4.69489C33.717 12.3966 44.688 34.1221 69.7244 64.3012C95.3604 95.2024 132.886 131.817 175.39 167.401C217.894 202.983 260.276 233.267 294.731 252.672C328.378 271.623 351.065 278.075 356.973 270.373C361.878 263.978 355.188 247.872 338.134 225.021L339.298 224.074C351.689 240.678 365.014 262.355 358.125 271.337C354.769 275.712 347.238 276.265 335.743 272.98C329.19 271.108 321.479 268.043 312.698 263.824Z" fill="black"/>
<path d="M91.7925 159.906C75.8877 152.266 61.3528 144.592 48.6223 137.083C31.9826 127.266 19.3365 118.262 11.0355 110.319C2.24697 101.91 -1.31986 94.9594 0.434067 89.6605C3.85039 79.338 26.3741 79.095 44.6676 80.7089L44.5433 82.245C19.4218 80.0284 4.25205 82.8408 1.82801 90.1646C-1.25926 99.4922 16.061 116.104 49.3477 135.74C83.4317 155.847 130.551 177.162 182.028 195.756C233.504 214.352 283.163 227.998 321.855 234.181C359.642 240.219 383.085 238.333 386.172 229.005C388.736 221.261 377.254 208.44 353.843 192.903L354.634 191.602C371.645 202.891 391.167 218.631 387.567 229.509C385.813 234.808 378.898 237.972 367.015 238.913C355.79 239.803 340.521 238.723 321.632 235.704C282.854 229.508 233.104 215.838 181.546 197.213C149.203 185.529 118.564 172.768 91.7925 159.906Z" fill="black"/>
<path d="M115.923 81.4701C120.671 81.4701 124.52 77.4489 124.52 72.4885C124.52 67.5282 120.671 63.507 115.923 63.507C111.174 63.507 107.325 67.5282 107.325 72.4885C107.325 77.4489 111.174 81.4701 115.923 81.4701Z" fill="white"/>
<path d="M285.38 191.095C288.287 191.095 290.643 188.633 290.643 185.597C290.643 182.56 288.287 180.099 285.38 180.099C282.474 180.099 280.118 182.56 280.118 185.597C280.118 188.633 282.474 191.095 285.38 191.095Z" fill="#8EE3C8"/>
<path d="M27.9893 239.358C32.7374 239.358 36.5865 235.336 36.5865 230.376C36.5865 225.416 32.7374 221.394 27.9893 221.394C23.2412 221.394 19.3922 225.416 19.3922 230.376C19.3922 235.336 23.2412 239.358 27.9893 239.358Z" fill="white"/>
</svg>
