<svg width="959" height="742" viewBox="0 0 959 742" fill="none" xmlns="http://www.w3.org/2000/svg">
<path d="M623.924 305.333C621.821 305.642 619.676 305.478 617.642 304.85C615.608 304.223 613.733 303.148 612.149 301.701C610.566 300.254 609.312 298.47 608.476 296.475C607.641 294.479 607.243 292.322 607.313 290.153L559.088 271.23L580.923 255.281L623.37 275.696C626.932 276.057 630.24 277.739 632.667 280.424C635.095 283.109 636.473 286.61 636.542 290.264C636.61 293.917 635.363 297.47 633.037 300.247C630.711 303.024 627.468 304.834 623.923 305.333L623.924 305.333Z" fill="#FFB7B7"/>
<path d="M596.367 291.757L603.897 264.637L603.526 264.379L532.996 215.458L472.026 152.992L436.51 167.481L438.842 178.959L438.995 179.1L520.057 253.237L520.132 253.274L596.367 291.757Z" fill="white"/>
<path d="M524.113 353.703L414.957 338.08L424.565 269.69H504.926L524.113 353.703Z" fill="#FFB6B6"/>
<path d="M338.641 688.59L361.033 693.903L391.757 608.246L358.711 600.405L338.641 688.59Z" fill="#FFB6B6"/>
<path d="M317.807 725.4L333.865 729.21L340.254 714.41L344.071 731.632L386.66 741.737C388.701 742.222 390.841 742.027 392.766 741.182C394.692 740.337 396.302 738.886 397.363 737.04C398.423 735.194 398.878 733.05 398.661 730.922C398.444 728.793 397.566 726.792 396.155 725.209L367.604 693.155L371.166 677.506L334.897 671.198L317.807 725.4Z" fill="#2F2E41"/>
<path d="M476.802 701.331H499.789L510.729 610.795H476.802V701.331Z" fill="#FFB6B6"/>
<path d="M464.668 742H481.153L484.096 726.108L491.632 742H535.355C537.451 742 539.492 741.316 541.18 740.048C542.869 738.78 544.116 736.994 544.739 734.951C545.363 732.908 545.331 730.715 544.647 728.691C543.964 726.668 542.665 724.921 540.94 723.706L506.024 699.083V683.017L469.299 685.255L464.668 742Z" fill="#2F2E41"/>
<path d="M413.578 326.476L520.327 317.805C551.827 392.941 531.798 512.886 507.59 647.909L473.255 652.442L470.591 435.475L384.519 637.319L348.734 635.451L413.578 326.476Z" fill="#2F2E41"/>
<path d="M475.715 128.623V91.747C475.718 85.2559 474.469 78.8277 472.038 72.8298C469.608 66.8319 466.043 61.3817 461.549 56.7906C457.055 52.1995 451.72 48.5576 445.847 46.0728C439.974 43.588 433.679 42.3091 427.322 42.3091C420.965 42.3091 414.67 43.588 408.797 46.0728C402.924 48.5576 397.588 52.1995 393.094 56.7906C388.6 61.3817 385.036 66.8319 382.605 72.8298C380.175 78.8277 378.926 85.2559 378.929 91.747C370.4 109.895 375.735 118.523 378.929 128.623C378.932 130.382 379.617 132.068 380.835 133.311C382.053 134.555 383.704 135.255 385.426 135.258H469.214C470.937 135.255 472.589 134.556 473.807 133.312C475.026 132.069 475.712 130.382 475.715 128.623V128.623Z" fill="#2F2E41"/>
<path d="M439.264 134.701C458.86 134.701 474.745 118.481 474.745 98.473C474.745 78.4646 458.86 62.2446 439.264 62.2446C419.669 62.2446 403.784 78.4646 403.784 98.473C403.784 118.481 419.669 134.701 439.264 134.701Z" fill="#FFB7B7"/>
<path d="M487.163 94.6964C487.152 84.3333 483.115 74.3981 475.938 67.0703C468.762 59.7425 459.031 55.6206 448.882 55.6089H441.659C431.51 55.6206 421.78 59.7425 414.603 67.0703C407.427 74.3981 403.39 84.3334 403.378 94.6964V95.4342C408.788 99.2105 413.924 99.7627 418.643 95.4342L423.849 80.5488L424.89 95.4342H432.78L435.41 87.9244L435.937 95.4342C446.593 104.701 466.745 100.26 487.163 95.4342L487.163 94.6964Z" fill="#2F2E41"/>
<path d="M418.575 289.679L508.912 286.169L513.961 225.825C517.855 214.78 517.919 205.289 514.148 197.637C510.905 191.348 505.457 186.539 498.893 184.174L479.126 159.796C476.583 156.663 473.39 154.146 469.778 152.426C466.166 150.707 462.225 149.828 458.24 149.854L406.878 150.212C405.64 149.453 398.131 145.555 383.321 152.108C367.257 159.217 370.987 183.913 371.028 184.161L371.065 184.393L371.241 184.551L405.403 213.933L418.575 289.679Z" fill="white"/>
<path d="M658.232 377.266C658.164 412.42 645.22 446.276 621.945 472.179C598.669 498.083 566.746 514.159 532.451 517.247C498.156 520.335 463.97 510.213 436.613 488.869C409.257 467.525 390.709 436.504 384.617 401.905C378.525 367.306 385.328 331.631 403.69 301.894C422.052 272.157 450.644 250.509 483.845 241.206C517.046 231.904 552.454 235.618 583.108 251.621C613.763 267.623 637.446 294.756 649.501 327.684C649.802 328.511 650.095 329.338 650.381 330.173V330.181C651.653 333.85 652.774 337.588 653.743 341.395C656.733 353.107 658.241 365.162 658.232 377.266V377.266Z" fill="#3F3D56"/>
<path d="M504.218 281.628C497.98 278.183 491.053 276.238 483.966 275.942C476.88 275.646 469.82 277.007 463.327 279.92C457.61 282.46 451.589 287.018 449.682 295.248C457.396 290.6 467.381 297.944 469.366 309.726L468.903 309.857C467.855 318.018 470.195 326.902 474.726 331.963C475.063 329.679 475.894 327.501 477.158 325.587C478.422 323.672 480.088 322.069 482.035 320.895C485.364 318.66 489.047 317.037 491.588 313.196C494.601 308.642 495.366 301.987 496.562 295.916C497.759 289.845 500.029 283.32 504.218 281.628Z" fill="#8EE3C8"/>
<path d="M461.039 351.073C458.902 354.349 456.049 356.405 453.488 358.964C450.532 361.71 448.593 365.411 447.997 369.446C447.673 372.296 448.174 375.194 448.105 378.077C448.036 380.959 447.095 384.204 445.174 384.92C442.143 386.038 439.829 380.29 436.714 379.888C434.238 379.573 432.009 383.55 432.726 386.999C433.443 390.449 436.814 391.976 438.75 389.724C440.5 392.724 439.266 398.166 436.636 399.087C436.359 400.977 436.081 402.86 435.811 404.75C429.163 400.001 422.446 395.174 416.792 388.22C410.505 380.552 406.605 371.14 405.594 361.193C404.861 353.199 405.948 344.056 402.355 337.906C399.478 332.984 394.542 331.897 390.099 332.205C389.289 332.26 388.472 332.354 387.662 332.457C390.282 324.422 393.609 316.646 397.603 309.225C398.507 308.829 399.347 308.295 400.095 307.642C404.229 304.059 406.064 296.806 409.419 291.79C409.635 291.467 409.859 291.152 410.09 290.845C413.522 286.269 418.119 283.914 422.561 281.725C432.395 276.851 442.513 271.913 452.894 272.59L449.94 272.882C446.493 282.741 443.043 292.601 439.59 302.46C439.066 303.972 438.536 305.487 438.001 307.004C436.042 312.611 434.022 318.581 434.323 324.857C434.5 328.574 435.765 332.543 438.171 333.819C440.415 335 442.868 333.551 445.035 332.118C445.953 331.519 446.863 330.921 447.781 330.314C451.074 328.149 454.722 325.928 458.2 327.377C461.386 328.7 463.738 333.118 464.185 337.882C464.596 342.514 463.489 347.153 461.039 351.073Z" fill="#8EE3C8"/>
<path d="M480.625 418.387C471.007 412.34 461.389 406.293 451.77 400.246L451.934 399.817C445.954 402.143 443.471 412.997 444.459 421.873C445.447 430.75 448.798 438.685 450.491 447.333C452.774 459.169 451.913 471.413 447.996 482.794C460.644 468.304 471.836 452.555 481.407 435.785C482.744 433.671 483.762 431.365 484.429 428.943C485.135 426.361 484.883 423.604 483.722 421.2C482.935 420.014 481.871 419.047 480.625 418.387V418.387Z" fill="#8EE3C8"/>
<path d="M442.665 308.376C441.536 310.852 441.362 313.672 442.178 316.273C443.127 318.369 444.848 319.997 446.968 320.803L452.282 323.493C454.05 324.388 455.956 325.291 457.758 324.555C459.932 323.667 461.439 320.187 461.05 316.957C460.634 313.519 458.512 311.154 456.549 309.14C453.803 306.322 451.056 303.504 448.309 300.686L446.761 302.622C445.087 304.29 443.702 306.235 442.665 308.376V308.376Z" fill="#8EE3C8"/>
<path d="M629.742 345.127C632.133 345.702 634.524 346.277 636.914 346.852C636.498 355.097 632.495 362.728 627.127 365.492C624.891 366.642 622.4 367.067 620.549 369.217C618.875 371.17 618.026 374.21 617.247 377.116C615.882 382.187 614.517 387.259 613.152 392.33C611.687 397.796 609.805 403.868 605.995 405.836C602.725 407.529 598.984 405.458 596.47 401.985C593.956 398.512 592.421 393.843 590.933 389.291C591.025 394.252 588.765 399.119 585.565 400.843C582.356 402.568 578.454 401.009 576.31 397.158C574.767 394.394 574.127 390.748 572.615 387.944C571.104 385.141 567.934 383.534 566.283 386.164C565.196 387.913 565.335 390.59 564.795 392.811C564.523 394.285 563.808 395.637 562.749 396.677C561.69 397.717 560.34 398.394 558.887 398.615C557.551 398.584 556.234 398.275 555.019 397.708C553.803 397.14 552.713 396.326 551.815 395.315C547.092 390.382 544.017 384.051 543.03 377.226C542.361 373.954 542.446 370.568 543.277 367.335C544.226 364.272 546.516 361.909 548.791 362.492C550.288 359.263 547.334 354.979 544.673 355.357C542.004 355.735 539.914 358.657 537.724 360.901C535.541 363.146 532.487 364.776 530.289 362.547C530.338 363.362 530.068 364.164 529.539 364.776C529.009 365.388 528.263 365.76 527.464 365.81C527.385 365.815 527.306 365.817 527.227 365.815C525.766 365.387 524.408 364.652 523.24 363.657C518.204 360.452 511.81 362.579 508.231 368.642C510.468 358.924 513.746 347.773 520.618 345.49C523.425 344.552 526.487 345.324 529.14 343.702C533.837 340.828 534.786 329.968 530.729 325.487C531.245 329.724 531.145 334.669 528.955 337.567C526.765 340.465 522.168 338.575 522.446 334.291C522.383 334.894 522.136 335.461 521.739 335.911C521.341 336.361 520.815 336.671 520.234 336.797C519.654 336.923 519.049 336.858 518.507 336.612C517.965 336.365 517.513 335.95 517.217 335.425C515.759 333.157 515.882 329.448 516.916 326.739C517.981 324.285 519.509 322.07 521.412 320.219C525.076 316.21 528.793 312.155 533.035 309.634C537.285 307.114 542.19 306.264 546.447 308.768C548.692 310.091 550.666 312.296 552.956 313.462C553.495 313.803 554.093 314.032 554.719 314.137C555.344 314.242 555.983 314.22 556.6 314.072C557.216 313.925 557.799 313.655 558.313 313.277C558.828 312.9 559.265 312.423 559.599 311.873C559.624 311.831 559.649 311.788 559.674 311.745C561.378 308.689 560.576 304.153 561.209 300.334C562.342 293.585 568.952 290.427 572.616 294.884C569.878 294.168 567.047 297.475 566.708 301.484C566.361 305.492 568.343 309.54 570.996 310.753C575.454 312.769 579.819 307.697 583.189 303.004C586.706 298.09 590.228 293.178 593.755 288.269C594.319 287.434 594.951 286.649 595.645 285.923C596.75 284.823 598.222 284.194 599.765 284.161C601.307 284.129 602.804 284.697 603.951 285.749C607.514 288.718 609.188 294.806 612.111 298.995C616.353 305.083 622.701 306.563 628.608 307.744C633.012 308.619 637.418 309.498 641.827 310.383C644.766 315.966 647.33 321.746 649.501 327.684C641.416 331.449 634.558 337.503 629.742 345.127V345.127Z" fill="#8EE3C8"/>
<path d="M653.743 341.395C652.84 344.114 652.346 346.958 652.278 349.829C648.499 345.119 647.897 336.292 650.381 330.18C651.653 333.85 652.774 337.588 653.743 341.395Z" fill="#8EE3C8"/>
<path d="M643.979 439.88C640.675 446.731 636.832 453.297 632.488 459.513C629.711 458.3 626.726 460.465 624.127 462.497C621.412 464.624 618.15 466.695 615.366 464.757C612.52 462.773 611.602 457.221 612.505 452.819C613.542 448.758 615.356 444.947 617.842 441.605C620.155 438.077 622.631 434.415 625.847 433.044C629.071 431.674 633.213 433.611 634.154 438.289L636.436 438.21C635.156 436.415 635.827 432.698 637.547 432.044C639.529 431.281 641.249 434.06 642.421 436.517C642.946 437.628 643.478 438.746 643.979 439.88Z" fill="#8EE3C8"/>
<path d="M556.546 406.617C551.639 406.932 547.752 400.764 545.17 394.696C542.587 388.628 540.23 381.689 535.802 378.6C533.273 376.835 530.388 376.593 527.644 375.738C526.088 375.336 524.648 374.562 523.443 373.479C522.238 372.396 521.303 371.035 520.716 369.509L517.604 368.226C513.249 370.448 509.262 373.351 505.786 376.83C501.813 381.139 499.338 386.663 498.744 392.549C498.149 398.911 500.345 406.005 504.447 408.395C507.689 410.283 511.463 409.093 514.747 410.821C518.85 412.981 521.285 419.255 522.207 425.45C523.129 431.645 522.896 438.083 523.555 444.348C524.215 450.614 526.033 457.133 529.795 460.343C534.504 464.361 541.412 461.023 543.525 453.709C544.561 450.121 544.525 446.073 545.3 442.349C546.665 435.791 550.348 430.925 553.269 425.546C556.189 420.166 558.489 412.86 556.546 406.617Z" fill="#8EE3C8"/>
<path d="M508.058 342.174C508.516 342.604 508.943 343.067 509.336 343.559C509.743 344.275 509.95 345.092 509.937 345.92C509.923 346.748 509.688 347.556 509.257 348.258C509.848 348.224 510.426 348.065 510.954 347.791C511.482 347.517 511.948 347.134 512.324 346.667C513.219 345.626 514.007 344.492 514.674 343.286C514.988 342.872 515.213 342.396 515.332 341.887C515.452 341.378 515.464 340.85 515.368 340.336C515.136 339.66 514.588 339.372 514.203 338.864C513.671 337.871 513.307 336.793 513.128 335.675C512.915 334.627 512.42 333.661 511.699 332.885C510.978 332.109 510.059 331.554 509.046 331.282L509.291 331.33C508.873 331.583 508.542 331.964 508.346 332.419C508.151 332.874 508.099 333.38 508.199 333.867C508.348 334.85 508.966 335.665 508.905 336.668C508.816 338.109 507.406 338.785 507.318 340.227C507.305 340.95 507.57 341.649 508.058 342.174Z" fill="#8EE3C8"/>
<path d="M499.651 317.682L499.673 317.677C499.823 317.537 499.963 317.385 500.09 317.222L499.651 317.682Z" fill="#8EE3C8"/>
<path d="M501.123 324.447C501.712 323.919 502.148 323.236 502.383 322.472C502.618 321.708 502.643 320.893 502.455 320.116C502.098 318.477 500.837 317.375 499.673 317.678C499.335 318.027 498.916 318.283 498.455 318.422C497.994 318.561 497.506 318.577 497.037 318.47C496.317 318.281 495.527 317.794 494.903 318.348C494.546 318.761 494.296 319.259 494.177 319.796C493.946 320.52 493.715 321.244 493.484 321.968C493.374 322.227 493.345 322.515 493.402 322.791C493.446 322.902 493.517 322.999 493.609 323.074C493.701 323.148 493.81 323.197 493.925 323.216C495.311 323.633 496.697 324.05 498.083 324.467C498.56 324.692 499.079 324.806 499.605 324.803C500.13 324.799 500.648 324.678 501.123 324.447V324.447Z" fill="#8EE3C8"/>
<path d="M605.736 417.845C605.096 416.774 604.455 415.703 603.814 414.632C603.185 413.392 602.325 412.289 601.282 411.386C601.056 411.192 600.795 411.047 600.514 410.956C600.233 410.866 599.937 410.833 599.644 410.86C599.35 410.886 599.065 410.971 598.804 411.111C598.542 411.25 598.311 411.44 598.121 411.671L598.088 411.712L598.166 412.324C599.881 414.202 601.05 416.53 601.541 419.048C601.687 420.143 601.636 421.275 601.764 422.374C601.778 422.884 601.89 423.386 602.093 423.852C602.297 424.317 602.588 424.737 602.951 425.087C603.96 425.775 605.144 424.761 605.862 423.523C606.504 422.506 606.792 421.299 606.679 420.095C606.519 419.287 606.198 418.521 605.736 417.845V417.845Z" fill="#8EE3C8"/>
<path d="M615.784 419.238C615.907 418.236 615.827 417.218 615.55 416.248C615.504 414.936 615.845 413.64 616.528 412.528C617.207 411.478 617.721 410.327 618.052 409.116C618.192 408.564 618.166 407.982 617.979 407.445C617.767 406.959 617.254 406.737 616.959 407.122L617.589 407.537C616.738 407.382 615.864 407.425 615.031 407.663C614.556 407.849 614.132 408.149 613.794 408.537C613.457 408.925 613.216 409.391 613.092 409.895C612.988 410.68 612.818 411.455 612.584 412.21C612.208 413 611.48 413.262 611.022 413.955C610.71 414.569 610.553 415.253 610.564 415.944C610.575 416.636 610.755 417.314 611.087 417.917C611.661 418.904 612.574 419.637 613.649 419.975C614.418 420.257 615.432 420.272 615.784 419.238Z" fill="#8EE3C8"/>
<path d="M633.68 424.751C633.958 425.491 634.331 426.189 634.788 426.829C635.645 427.71 636.809 427.169 637.849 426.955C638.792 426.802 639.758 426.914 640.644 427.277C641.53 427.64 642.303 428.241 642.882 429.016C642.479 426.964 641.6 425.04 640.317 423.406C639.035 421.773 637.388 420.477 635.513 419.629C633.078 418.768 630.512 418.358 627.935 418.419L627.495 418.534C628.617 421.867 632.138 421.793 633.68 424.751Z" fill="#8EE3C8"/>
<path d="M557.888 431.569L557.895 431.583L558.023 431.332L557.888 431.569Z" fill="#8EE3C8"/>
<path d="M555.174 436.934C554.582 438.031 554.072 439.173 553.651 440.35C553.092 442.256 552.722 444.214 552.547 446.195C552.409 447.322 552.366 448.761 553.058 449.309C553.256 449.444 553.496 449.5 553.732 449.467C553.968 449.435 554.184 449.315 554.34 449.132C554.724 448.717 555.038 448.24 555.27 447.72C556.629 445.331 557.683 442.775 558.409 440.114C559.166 437.29 558.985 434.29 557.895 431.583C556.988 433.367 556.081 435.15 555.174 436.934Z" fill="#8EE3C8"/>
<path d="M528.984 293.989C529.416 294.42 529.961 294.712 530.553 294.83C531.145 294.948 531.757 294.886 532.315 294.653C533.471 294.137 534.531 293.422 535.449 292.539C536.21 291.965 536.855 291.246 537.349 290.423C537.622 289.931 537.796 289.389 537.863 288.828C537.93 288.267 537.887 287.698 537.738 287.154C537.526 286.632 537.186 286.175 536.753 285.824C536.319 285.474 535.805 285.242 535.259 285.151C533.721 284.685 532.183 284.22 530.645 283.754L531.757 282.73C530.612 282.103 529.346 283.267 528.63 284.708C528.172 285.65 527.852 286.655 527.681 287.692C527.438 288.775 527.428 289.9 527.653 290.987C527.879 292.075 528.333 293.099 528.984 293.989V293.989Z" fill="#8EE3C8"/>
<path d="M556.14 284.681C556.573 285.169 557.173 285.47 557.816 285.523C558.459 285.577 559.098 285.378 559.603 284.968C560.038 284.635 560.399 284.212 560.663 283.726C560.927 283.241 561.087 282.704 561.135 282.151C561.244 280.916 560.645 279.543 559.791 279.436L559.986 278.28C558.341 277.976 556.315 277.915 555.433 279.956C555.136 280.738 555.045 281.586 555.169 282.415C555.293 283.244 555.627 284.025 556.14 284.681Z" fill="#8EE3C8"/>
<path d="M394.025 408.467C392.444 407.017 391.194 405.231 390.362 403.235C389.53 401.238 389.137 399.08 389.21 396.911C389.283 394.743 389.82 392.617 390.784 390.683C391.749 388.75 393.116 387.056 394.791 385.72L378.109 335.794L404.099 342.688L415.944 389.039C417.956 392.061 418.813 395.733 418.351 399.357C417.889 402.981 416.141 406.307 413.437 408.702C410.734 411.098 407.264 412.397 403.685 412.354C400.105 412.311 396.666 410.929 394.019 408.469L394.025 408.467Z" fill="#FFB7B7"/>
<path d="M386.572 378.169L411.789 366.694L403.318 279.602L411.208 191.781L377.539 173.228L370.405 182.412V182.621L366.626 293.672L366.646 293.756L386.572 378.169Z" fill="white"/>
<path d="M772.88 637.699C758.621 631.004 743.242 623.115 726.74 614.034C641.393 567.054 536.444 493.765 431.223 407.669C326.002 321.574 233.082 232.955 169.579 158.142C138.645 121.697 116.363 90.4863 103.352 65.375C89.5768 38.7901 86.7987 19.9508 95.0933 9.38143C111.253 -11.2091 163.88 7.33706 205.184 26.5214L203.674 29.9106C146.954 3.56523 109.403 -2.89822 97.939 11.71C83.3367 30.3154 110.453 82.7986 172.334 155.703C235.698 230.352 328.448 318.804 433.503 404.764C538.557 490.723 643.312 563.879 728.471 610.757C811.635 656.538 867.711 672.124 882.313 653.518C894.436 638.07 877.899 599.163 835.749 543.961L838.625 541.672C869.251 581.783 902.186 634.15 885.159 655.847C876.864 666.416 858.251 667.752 829.839 659.818C813.643 655.294 794.583 647.889 772.88 637.699Z" fill="black"/>
<path d="M226.879 386.66C187.568 368.203 151.643 349.666 120.177 331.524C79.0497 307.811 47.793 286.057 27.2759 266.871C5.55372 246.556 -3.26224 229.765 1.07286 216.965C9.5168 192.028 65.1876 191.441 110.403 195.34L110.095 199.051C48.0039 193.696 10.5096 200.49 4.51821 218.182C-3.11246 240.715 39.6971 280.845 121.97 328.281C206.214 376.854 322.677 428.345 449.91 473.264C577.141 518.186 699.879 551.152 795.513 566.088C888.909 580.675 946.852 576.118 954.483 553.585C960.818 534.876 932.44 503.904 874.576 466.372L876.531 463.229C918.576 490.5 966.828 528.524 957.929 554.801C953.594 567.602 936.503 575.246 907.132 577.521C879.389 579.669 841.65 577.061 794.962 569.768C699.116 554.799 576.152 521.776 448.718 476.783C368.777 448.558 293.049 417.73 226.879 386.66Z" fill="black"/>
<path d="M286.52 197.179C298.255 197.179 307.769 187.465 307.769 175.482C307.769 163.499 298.255 153.784 286.52 153.784C274.784 153.784 265.271 163.499 265.271 175.482C265.271 187.465 274.784 197.179 286.52 197.179Z" fill="white"/>
<path d="M705.36 462.004C712.544 462.004 718.368 456.057 718.368 448.722C718.368 441.387 712.544 435.44 705.36 435.44C698.176 435.44 692.353 441.387 692.353 448.722C692.353 456.057 698.176 462.004 705.36 462.004Z" fill="#8EE3C8"/>
<path d="M69.1799 578.594C80.9155 578.594 90.4291 568.879 90.4291 556.896C90.4291 544.913 80.9155 535.199 69.1799 535.199C57.4443 535.199 47.9307 544.913 47.9307 556.896C47.9307 568.879 57.4443 578.594 69.1799 578.594Z" fill="white"/>
</svg>
