<svg width="967" height="750" viewBox="0 0 967 750" fill="none" xmlns="http://www.w3.org/2000/svg">
<g filter="url(#filter0_d_114_2)">
<path d="M627.924 305.333C625.821 305.642 623.676 305.478 621.642 304.85C619.608 304.223 617.733 303.148 616.149 301.701C614.566 300.254 613.312 298.47 612.476 296.475C611.641 294.479 611.243 292.322 611.313 290.153L563.088 271.23L584.923 255.281L627.37 275.696C630.932 276.057 634.24 277.739 636.667 280.424C639.095 283.109 640.473 286.61 640.542 290.264C640.61 293.917 639.363 297.47 637.037 300.247C634.711 303.024 631.468 304.834 627.923 305.333L627.924 305.333Z" fill="#FFB7B7"/>
<path d="M600.367 291.757L607.897 264.637L607.526 264.38L536.996 215.458L476.026 152.993L440.51 167.481L442.842 178.959L442.995 179.1L524.057 253.237L524.132 253.274L600.367 291.757Z" fill="#8EE3C8"/>
<path d="M528.113 353.703L418.957 338.08L428.565 269.69H508.926L528.113 353.703Z" fill="#FFB6B6"/>
<path d="M342.641 688.59L365.033 693.903L395.758 608.246L362.711 600.405L342.641 688.59Z" fill="#FFB6B6"/>
<path d="M321.807 725.4L337.865 729.21L344.254 714.41L348.071 731.632L390.66 741.737C392.701 742.222 394.841 742.027 396.766 741.182C398.692 740.337 400.302 738.886 401.363 737.04C402.423 735.194 402.878 733.05 402.661 730.922C402.444 728.793 401.566 726.792 400.155 725.209L371.604 693.155L375.166 677.506L338.897 671.198L321.807 725.4Z" fill="#2F2E41"/>
<path d="M480.802 701.331H503.789L514.729 610.795H480.802V701.331Z" fill="#FFB6B6"/>
<path d="M468.668 742H485.153L488.096 726.108L495.632 742H539.356C541.451 742 543.492 741.316 545.181 740.048C546.869 738.78 548.116 736.994 548.739 734.951C549.363 732.908 549.331 730.715 548.647 728.692C547.964 726.669 546.665 724.922 544.94 723.706L510.024 699.083V683.017L473.299 685.255L468.668 742Z" fill="#2F2E41"/>
<path d="M417.578 326.476L524.327 317.805C555.827 392.941 535.798 512.886 511.59 647.909L477.255 652.442L474.591 435.475L388.519 637.319L352.734 635.451L417.578 326.476Z" fill="#2F2E41"/>
<path d="M479.715 128.623V91.747C479.718 85.2559 478.469 78.8277 476.038 72.8298C473.608 66.8319 470.043 61.3817 465.549 56.7906C461.055 52.1995 455.719 48.5576 449.847 46.0728C443.974 43.588 437.679 42.3091 431.322 42.3091C424.965 42.3091 418.67 43.588 412.797 46.0728C406.924 48.5576 401.588 52.1995 397.094 56.7906C392.6 61.3817 389.036 66.8319 386.605 72.8298C384.175 78.8277 382.926 85.2559 382.929 91.747C374.4 109.895 379.735 118.523 382.929 128.623C382.932 130.382 383.617 132.068 384.835 133.311C386.053 134.555 387.704 135.255 389.426 135.258H473.214C474.937 135.255 476.589 134.556 477.807 133.312C479.026 132.069 479.712 130.382 479.715 128.623Z" fill="#2F2E41"/>
<path d="M443.264 134.701C462.86 134.701 478.745 118.481 478.745 98.4728C478.745 78.4645 462.86 62.2445 443.264 62.2445C423.669 62.2445 407.784 78.4645 407.784 98.4728C407.784 118.481 423.669 134.701 443.264 134.701Z" fill="#FFB7B7"/>
<path d="M491.163 94.6963C491.152 84.3332 487.115 74.3979 479.938 67.0701C472.762 59.7423 463.031 55.6204 452.882 55.6088H445.659C435.51 55.6205 425.78 59.7424 418.603 67.0702C411.427 74.398 407.39 84.3332 407.378 94.6963V95.4341C412.788 99.2104 417.924 99.7626 422.643 95.4341L427.849 80.5487L428.89 95.434H436.78L439.41 87.9242L439.937 95.4341C450.593 104.701 470.745 100.26 491.163 95.4341L491.163 94.6963Z" fill="#2F2E41"/>
<path d="M422.575 289.679L512.912 286.169L517.961 225.825C521.855 214.78 521.919 205.289 518.148 197.637C514.905 191.348 509.457 186.539 502.893 184.174L483.126 159.796C480.583 156.663 477.39 154.146 473.778 152.426C470.166 150.707 466.226 149.828 462.24 149.854L410.878 150.212C409.64 149.453 402.131 145.555 387.321 152.108C371.257 159.217 374.987 183.913 375.028 184.161L375.065 184.393L375.241 184.551L409.403 213.933L422.575 289.679Z" fill="#8EE3C8"/>
<path d="M662.232 377.266C662.164 412.42 649.22 446.276 625.945 472.179C602.669 498.083 570.746 514.159 536.451 517.247C502.156 520.335 467.97 510.213 440.613 488.869C413.257 467.525 394.71 436.504 388.617 401.905C382.525 367.306 389.328 331.631 407.69 301.894C426.052 272.157 454.644 250.509 487.845 241.206C521.046 231.904 556.454 235.618 587.108 251.621C617.763 267.623 641.446 294.756 653.501 327.684C653.802 328.511 654.095 329.338 654.381 330.173V330.181C655.653 333.85 656.774 337.588 657.743 341.395C660.733 353.107 662.242 365.162 662.232 377.266Z" fill="#3F3D56"/>
<path d="M508.219 281.628C501.98 278.183 495.053 276.238 487.966 275.942C480.88 275.646 473.821 277.007 467.327 279.92C461.61 282.46 455.59 287.018 453.682 295.248C461.396 290.6 471.382 297.944 473.367 309.726L472.903 309.857C471.855 318.018 474.195 326.902 478.726 331.963C479.063 329.679 479.894 327.501 481.158 325.587C482.423 323.672 484.089 322.069 486.035 320.895C489.364 318.66 493.047 317.037 495.588 313.196C498.601 308.642 499.366 301.987 500.563 295.916C501.759 289.845 504.029 283.32 508.219 281.628Z" fill="#6C63FF"/>
<path d="M465.039 351.073C462.902 354.349 460.049 356.405 457.488 358.964C454.532 361.71 452.593 365.411 451.997 369.446C451.673 372.297 452.174 375.194 452.105 378.077C452.036 380.959 451.095 384.204 449.174 384.92C446.143 386.038 443.829 380.29 440.714 379.888C438.238 379.573 436.009 383.55 436.726 386.999C437.443 390.449 440.814 391.976 442.75 389.724C444.5 392.724 443.266 398.166 440.636 399.087C440.359 400.977 440.081 402.86 439.811 404.75C433.163 400.001 426.446 395.174 420.792 388.22C414.505 380.552 410.605 371.14 409.594 361.193C408.861 353.199 409.948 344.056 406.355 337.906C403.478 332.984 398.542 331.897 394.099 332.205C393.289 332.26 392.472 332.354 391.662 332.457C394.282 324.422 397.609 316.646 401.603 309.225C402.507 308.829 403.347 308.295 404.095 307.642C408.229 304.059 410.064 296.806 413.419 291.79C413.635 291.467 413.859 291.152 414.09 290.845C417.522 286.269 422.119 283.914 426.561 281.725C436.395 276.851 446.513 271.913 456.894 272.59L453.94 272.882C450.493 282.741 447.043 292.601 443.59 302.46C443.066 303.972 442.536 305.487 442.001 307.004C440.042 312.611 438.022 318.581 438.323 324.857C438.5 328.574 439.765 332.543 442.171 333.819C444.415 335 446.868 333.551 449.035 332.118C449.953 331.519 450.863 330.921 451.781 330.314C455.074 328.149 458.722 325.928 462.2 327.377C465.386 328.7 467.738 333.118 468.185 337.882C468.596 342.514 467.489 347.153 465.039 351.073Z" fill="#6C63FF"/>
<path d="M484.625 418.387C475.007 412.34 465.389 406.293 455.77 400.246L455.934 399.817C449.953 402.143 447.471 412.997 448.459 421.873C449.447 430.75 452.798 438.685 454.491 447.333C456.774 459.169 455.912 471.413 451.996 482.794C464.643 468.304 475.836 452.555 485.407 435.785C486.744 433.671 487.762 431.365 488.429 428.943C489.135 426.361 488.883 423.604 487.722 421.2C486.935 420.014 485.87 419.047 484.625 418.387Z" fill="#6C63FF"/>
<path d="M446.665 308.376C445.536 310.852 445.362 313.672 446.178 316.273C447.127 318.369 448.849 319.997 450.968 320.803L456.282 323.493C458.05 324.388 459.956 325.291 461.758 324.555C463.932 323.667 465.44 320.187 465.05 316.957C464.635 313.519 462.512 311.154 460.55 309.14C457.803 306.322 455.056 303.504 452.309 300.686L450.761 302.622C449.087 304.289 447.702 306.235 446.665 308.376Z" fill="#6C63FF"/>
<path d="M633.742 345.127C636.133 345.702 638.524 346.277 640.914 346.852C640.498 355.097 636.495 362.728 631.127 365.492C628.891 366.642 626.4 367.067 624.549 369.217C622.875 371.17 622.026 374.21 621.247 377.116C619.882 382.187 618.517 387.259 617.152 392.33C615.687 397.796 613.805 403.868 609.995 405.836C606.725 407.529 602.984 405.458 600.47 401.985C597.956 398.512 596.421 393.843 594.933 389.291C595.025 394.252 592.765 399.119 589.565 400.843C586.356 402.568 582.454 401.009 580.31 397.158C578.767 394.394 578.127 390.748 576.615 387.944C575.104 385.141 571.934 383.534 570.283 386.164C569.196 387.913 569.335 390.59 568.795 392.811C568.523 394.285 567.808 395.637 566.749 396.677C565.69 397.717 564.34 398.394 562.887 398.615C561.551 398.584 560.234 398.275 559.019 397.708C557.803 397.14 556.713 396.326 555.815 395.315C551.092 390.382 548.017 384.051 547.03 377.226C546.361 373.954 546.446 370.568 547.277 367.335C548.226 364.272 550.516 361.909 552.791 362.492C554.288 359.263 551.334 354.979 548.673 355.357C546.004 355.735 543.914 358.657 541.724 360.901C539.541 363.146 536.487 364.776 534.289 362.547C534.338 363.362 534.068 364.164 533.539 364.776C533.009 365.388 532.263 365.76 531.464 365.81C531.385 365.815 531.306 365.817 531.227 365.815C529.766 365.387 528.408 364.652 527.24 363.657C522.204 360.452 515.81 362.579 512.231 368.642C514.468 358.924 517.746 347.773 524.618 345.49C527.425 344.552 530.487 345.324 533.14 343.702C537.837 340.828 538.786 329.968 534.729 325.487C535.245 329.724 535.145 334.669 532.955 337.567C530.765 340.465 526.168 338.575 526.446 334.291C526.383 334.894 526.136 335.461 525.739 335.911C525.341 336.361 524.815 336.671 524.234 336.797C523.654 336.923 523.049 336.858 522.507 336.612C521.965 336.365 521.513 335.95 521.217 335.425C519.759 333.157 519.882 329.448 520.916 326.739C521.981 324.285 523.509 322.07 525.412 320.219C529.076 316.21 532.793 312.155 537.035 309.634C541.285 307.114 546.19 306.264 550.447 308.768C552.692 310.091 554.666 312.296 556.956 313.462C557.495 313.803 558.093 314.032 558.719 314.137C559.344 314.242 559.983 314.22 560.6 314.072C561.216 313.925 561.799 313.655 562.313 313.277C562.828 312.9 563.265 312.423 563.599 311.873C563.624 311.831 563.649 311.788 563.674 311.745C565.378 308.689 564.576 304.153 565.209 300.334C566.342 293.585 572.952 290.427 576.616 294.884C573.878 294.168 571.047 297.475 570.708 301.484C570.361 305.492 572.343 309.54 574.996 310.753C579.454 312.769 583.819 307.697 587.189 303.004C590.706 298.09 594.228 293.178 597.755 288.269C598.319 287.434 598.951 286.649 599.645 285.923C600.75 284.823 602.222 284.194 603.765 284.161C605.307 284.129 606.804 284.697 607.951 285.749C611.514 288.718 613.188 294.806 616.111 298.995C620.353 305.083 626.701 306.563 632.608 307.744C637.012 308.619 641.418 309.498 645.827 310.383C648.766 315.966 651.33 321.746 653.501 327.684C645.416 331.449 638.558 337.503 633.742 345.127Z" fill="#6C63FF"/>
<path d="M657.743 341.394C656.84 344.114 656.346 346.958 656.278 349.829C652.499 345.119 651.897 336.291 654.381 330.18C655.653 333.85 656.774 337.588 657.743 341.394Z" fill="#6C63FF"/>
<path d="M647.979 439.88C644.675 446.731 640.832 453.297 636.488 459.513C633.711 458.3 630.726 460.465 628.127 462.497C625.412 464.624 622.15 466.695 619.366 464.757C616.52 462.773 615.602 457.221 616.505 452.819C617.542 448.758 619.356 444.947 621.842 441.605C624.155 438.077 626.631 434.415 629.847 433.044C633.071 431.674 637.213 433.611 638.154 438.289L640.436 438.21C639.156 436.415 639.827 432.698 641.547 432.044C643.529 431.281 645.249 434.06 646.421 436.517C646.946 437.628 647.478 438.746 647.979 439.88Z" fill="#6C63FF"/>
<path d="M560.546 406.617C555.639 406.932 551.752 400.764 549.17 394.696C546.587 388.628 544.23 381.689 539.802 378.6C537.273 376.835 534.388 376.593 531.644 375.738C530.088 375.336 528.648 374.562 527.443 373.479C526.238 372.396 525.303 371.035 524.716 369.509L521.604 368.226C517.249 370.448 513.262 373.351 509.786 376.83C505.813 381.139 503.338 386.663 502.744 392.549C502.149 398.911 504.345 406.005 508.447 408.395C511.689 410.283 515.463 409.093 518.747 410.821C522.85 412.981 525.285 419.255 526.207 425.45C527.129 431.645 526.896 438.083 527.555 444.348C528.215 450.614 530.033 457.133 533.795 460.343C538.504 464.361 545.412 461.023 547.525 453.709C548.561 450.121 548.525 446.073 549.3 442.349C550.665 435.791 554.348 430.925 557.269 425.546C560.189 420.166 562.489 412.86 560.546 406.617Z" fill="#6C63FF"/>
<path d="M512.058 342.174C512.515 342.604 512.942 343.067 513.336 343.559C513.743 344.275 513.95 345.092 513.937 345.92C513.923 346.748 513.688 347.556 513.257 348.258C513.848 348.224 514.426 348.065 514.954 347.791C515.482 347.517 515.948 347.134 516.323 346.667C517.219 345.626 518.007 344.492 518.674 343.286C518.988 342.872 519.212 342.396 519.332 341.887C519.451 341.378 519.464 340.85 519.368 340.336C519.136 339.66 518.588 339.372 518.203 338.864C517.671 337.871 517.307 336.793 517.128 335.675C516.915 334.627 516.42 333.661 515.699 332.885C514.978 332.109 514.059 331.554 513.045 331.282L513.291 331.33C512.873 331.583 512.542 331.964 512.346 332.419C512.15 332.874 512.099 333.38 512.199 333.867C512.348 334.85 512.966 335.665 512.905 336.668C512.816 338.109 511.405 338.785 511.318 340.227C511.305 340.95 511.57 341.649 512.058 342.174Z" fill="#6C63FF"/>
<path d="M503.651 317.681L503.673 317.677C503.823 317.537 503.963 317.385 504.09 317.222L503.651 317.681Z" fill="#6C63FF"/>
<path d="M505.123 324.447C505.712 323.919 506.148 323.236 506.383 322.472C506.618 321.708 506.643 320.893 506.455 320.116C506.098 318.477 504.837 317.375 503.673 317.678C503.335 318.027 502.916 318.283 502.455 318.422C501.994 318.561 501.506 318.577 501.037 318.47C500.317 318.281 499.527 317.794 498.903 318.348C498.546 318.761 498.296 319.259 498.177 319.796C497.946 320.52 497.715 321.244 497.484 321.968C497.374 322.227 497.345 322.515 497.402 322.791C497.446 322.902 497.517 322.999 497.609 323.074C497.701 323.148 497.81 323.197 497.925 323.216C499.311 323.633 500.697 324.05 502.083 324.467C502.56 324.692 503.079 324.806 503.605 324.803C504.13 324.799 504.648 324.678 505.123 324.447Z" fill="#6C63FF"/>
<path d="M609.736 417.845C609.096 416.774 608.455 415.703 607.814 414.632C607.185 413.392 606.325 412.289 605.282 411.386C605.056 411.192 604.795 411.047 604.514 410.956C604.233 410.866 603.937 410.833 603.644 410.86C603.35 410.886 603.065 410.971 602.804 411.111C602.542 411.25 602.311 411.44 602.121 411.671L602.088 411.712L602.166 412.324C603.881 414.202 605.05 416.53 605.541 419.048C605.687 420.143 605.636 421.275 605.764 422.374C605.778 422.884 605.89 423.386 606.093 423.852C606.297 424.317 606.588 424.737 606.951 425.087C607.96 425.775 609.144 424.761 609.862 423.523C610.504 422.506 610.792 421.299 610.679 420.095C610.519 419.287 610.198 418.521 609.736 417.845Z" fill="#6C63FF"/>
<path d="M619.784 419.238C619.907 418.236 619.827 417.218 619.55 416.248C619.504 414.936 619.845 413.64 620.528 412.528C621.207 411.478 621.721 410.327 622.052 409.116C622.192 408.564 622.166 407.982 621.979 407.445C621.767 406.959 621.254 406.737 620.959 407.122L621.589 407.537C620.738 407.382 619.864 407.425 619.031 407.663C618.556 407.849 618.132 408.149 617.794 408.537C617.457 408.925 617.216 409.391 617.092 409.895C616.988 410.68 616.818 411.455 616.584 412.21C616.208 413 615.48 413.262 615.022 413.955C614.71 414.569 614.553 415.253 614.564 415.944C614.575 416.636 614.755 417.314 615.087 417.917C615.661 418.904 616.574 419.637 617.649 419.975C618.418 420.257 619.432 420.272 619.784 419.238Z" fill="#6C63FF"/>
<path d="M637.679 424.751C637.958 425.491 638.331 426.189 638.788 426.829C639.645 427.71 640.809 427.169 641.849 426.954C642.792 426.802 643.757 426.914 644.644 427.277C645.53 427.64 646.303 428.241 646.882 429.016C646.479 426.963 645.599 425.04 644.317 423.406C643.035 421.773 641.388 420.477 639.513 419.629C637.078 418.768 634.512 418.358 631.935 418.419L631.495 418.534C632.616 421.867 636.138 421.793 637.679 424.751Z" fill="#6C63FF"/>
<path d="M561.888 431.569L561.895 431.583L562.023 431.332L561.888 431.569Z" fill="#6C63FF"/>
<path d="M559.174 436.934C558.581 438.031 558.072 439.173 557.651 440.35C557.092 442.256 556.722 444.214 556.547 446.195C556.409 447.322 556.366 448.761 557.058 449.309C557.256 449.444 557.496 449.5 557.732 449.467C557.968 449.435 558.184 449.315 558.34 449.132C558.724 448.717 559.038 448.24 559.27 447.72C560.628 445.331 561.683 442.775 562.409 440.114C563.166 437.29 562.985 434.29 561.895 431.583C560.988 433.367 560.081 435.15 559.174 436.934Z" fill="#6C63FF"/>
<path d="M532.984 293.989C533.416 294.42 533.961 294.712 534.553 294.83C535.145 294.948 535.757 294.886 536.315 294.653C537.471 294.137 538.531 293.422 539.449 292.539C540.21 291.965 540.855 291.246 541.349 290.423C541.622 289.931 541.796 289.389 541.863 288.828C541.93 288.267 541.887 287.698 541.738 287.154C541.526 286.632 541.186 286.175 540.753 285.824C540.319 285.474 539.805 285.242 539.259 285.151C537.721 284.685 536.183 284.22 534.645 283.754L535.757 282.73C534.612 282.103 533.346 283.267 532.63 284.708C532.172 285.65 531.852 286.655 531.681 287.692C531.438 288.775 531.428 289.9 531.653 290.987C531.879 292.075 532.333 293.099 532.984 293.989Z" fill="#6C63FF"/>
<path d="M560.14 284.681C560.573 285.169 561.172 285.47 561.816 285.523C562.459 285.577 563.098 285.378 563.603 284.968C564.038 284.635 564.399 284.212 564.663 283.726C564.926 283.241 565.087 282.704 565.135 282.151C565.243 280.916 564.645 279.543 563.791 279.436L563.986 278.28C562.34 277.976 560.315 277.915 559.433 279.956C559.136 280.738 559.044 281.586 559.168 282.415C559.292 283.244 559.627 284.025 560.14 284.681Z" fill="#6C63FF"/>
<path d="M398.025 408.467C396.444 407.017 395.194 405.231 394.362 403.235C393.53 401.238 393.137 399.08 393.21 396.911C393.283 394.743 393.82 392.617 394.784 390.683C395.749 388.75 397.116 387.056 398.791 385.72L382.109 335.794L408.099 342.688L419.944 389.039C421.956 392.061 422.813 395.733 422.351 399.357C421.889 402.981 420.141 406.307 417.437 408.702C414.734 411.098 411.264 412.397 407.685 412.354C404.105 412.311 400.666 410.929 398.019 408.469L398.025 408.467Z" fill="#FFB7B7"/>
<path d="M390.572 378.169L415.79 366.695L407.318 279.602L415.208 191.782L381.539 173.228L374.406 182.412V182.621L370.626 293.672L370.646 293.756L390.572 378.169Z" fill="#8EE3C8"/>
<path d="M776.88 637.699C762.621 631.004 747.241 623.115 730.74 614.034C645.393 567.054 540.443 493.765 435.222 407.669C330.002 321.574 237.082 232.955 173.579 158.142C142.645 121.697 120.362 90.4863 107.352 65.375C93.5767 38.7901 90.7986 19.9508 99.0932 9.38143C115.253 -11.2091 167.88 7.33706 209.183 26.5214L207.674 29.9106C150.954 3.56523 113.403 -2.89822 101.939 11.71C87.3365 30.3154 114.453 82.7986 176.334 155.703C239.697 230.352 332.448 318.804 437.502 404.764C542.557 490.723 647.312 563.879 732.471 610.757C815.635 656.538 871.711 672.124 886.313 653.518C898.436 638.07 881.899 599.163 839.749 543.961L842.625 541.672C873.251 581.783 906.186 634.15 889.159 655.847C880.863 666.416 862.251 667.752 833.839 659.818C817.643 655.294 798.583 647.889 776.88 637.699Z" fill="black"/>
<path d="M230.879 386.66C191.568 368.203 155.643 349.665 124.177 331.524C83.0497 307.81 51.793 286.057 31.2759 266.871C9.55372 246.556 0.737764 229.765 5.07286 216.964C13.5168 192.028 69.1876 191.441 114.403 195.34L114.095 199.05C52.0039 193.696 14.5096 200.49 8.51821 218.182C0.887542 240.715 43.6971 280.845 125.97 328.281C210.214 376.854 326.677 428.345 453.91 473.264C581.141 518.186 703.879 551.151 799.513 566.088C892.909 580.675 950.852 576.118 958.483 553.585C964.818 534.876 936.44 503.904 878.576 466.372L880.531 463.229C922.576 490.5 970.828 528.524 961.929 554.801C957.594 567.602 940.503 575.246 911.132 577.521C883.389 579.669 845.65 577.061 798.962 569.768C703.116 554.799 580.152 521.775 452.718 476.783C372.777 448.558 297.049 417.73 230.879 386.66Z" fill="black"/>
<path d="M290.52 197.179C302.255 197.179 311.769 187.465 311.769 175.482C311.769 163.499 302.255 153.784 290.52 153.784C278.784 153.784 269.271 163.499 269.271 175.482C269.271 187.465 278.784 197.179 290.52 197.179Z" fill="#8EE3C8"/>
<path d="M709.36 462.004C716.544 462.004 722.368 456.057 722.368 448.722C722.368 441.387 716.544 435.44 709.36 435.44C702.176 435.44 696.353 441.387 696.353 448.722C696.353 456.057 702.176 462.004 709.36 462.004Z" fill="#6C63FF"/>
<path d="M73.1798 578.594C84.9154 578.594 94.429 568.88 94.429 556.897C94.429 544.914 84.9154 535.199 73.1798 535.199C61.4442 535.199 51.9305 544.914 51.9305 556.897C51.9305 568.88 61.4442 578.594 73.1798 578.594Z" fill="#8EE3C8"/>
</g>
<defs>
<filter id="filter0_d_114_2" x="0" y="0.368408" width="967" height="749.632" filterUnits="userSpaceOnUse" color-interpolation-filters="sRGB">
<feFlood flood-opacity="0" result="BackgroundImageFix"/>
<feColorMatrix in="SourceAlpha" type="matrix" values="0 0 0 0 0 0 0 0 0 0 0 0 0 0 0 0 0 0 127 0" result="hardAlpha"/>
<feOffset dy="4"/>
<feGaussianBlur stdDeviation="2"/>
<feComposite in2="hardAlpha" operator="out"/>
<feColorMatrix type="matrix" values="0 0 0 0 0 0 0 0 0 0 0 0 0 0 0 0 0 0 0.25 0"/>
<feBlend mode="normal" in2="BackgroundImageFix" result="effect1_dropShadow_114_2"/>
<feBlend mode="normal" in="SourceGraphic" in2="effect1_dropShadow_114_2" result="shape"/>
</filter>
</defs>
</svg>
